<svg id="Layer_1" enable-background="new 0 0 256 256" height="512" viewBox="0 0 256 256" width="512" xmlns="http://www.w3.org/2000/svg"><g><g><g><path d="m25.705 17.303c-.689 8.179-9.212 9.47-9.212 9.47 7.318.345 9.142 9.944 9.142 9.944.156-6.844 9.422-10.045 9.422-10.045-6.941-.415-9.352-9.369-9.352-9.369z" fill="#d7e057"/></g></g><g><g><path d="m35.147 25.175c-5.766-.345-7.972-8.186-7.994-8.265-.19-.702-.855-1.172-1.582-1.102-.726.065-1.299.643-1.36 1.368-.579 6.87-7.646 8.066-7.942 8.113-.763.116-1.314.791-1.274 1.561.04.771.657 1.385 1.428 1.421 6.035.284 7.723 8.645 7.739 8.727.135.712.759 1.22 1.472 1.22.042 0 .083-.002.125-.005.765-.063 1.358-.693 1.376-1.461.13-5.709 8.332-8.634 8.413-8.662.677-.234 1.094-.913.996-1.622s-.682-1.251-1.397-1.293zm-9.585 6.795c-.924-1.886-2.34-3.947-4.447-5.28 1.856-1.041 3.697-2.629 4.87-4.916 1.057 1.874 2.654 3.955 4.941 5.224-1.848 1.1-3.988 2.739-5.364 4.972z" fill="#3a312a"/></g></g><g><g><path d="m47.404 26.979c-.974 11.564-13.024 13.39-13.024 13.39 10.346.487 12.925 14.059 12.925 14.059.221-9.677 13.321-14.202 13.321-14.202-9.813-.587-13.222-13.247-13.222-13.247z" fill="#d7e057"/></g></g><g><g><path d="m60.715 38.729c-8.604-.515-11.832-12.024-11.863-12.141-.191-.702-.853-1.161-1.583-1.102-.725.066-1.298.642-1.359 1.367-.86 10.215-11.313 11.964-11.754 12.032-.763.116-1.313.791-1.273 1.561.04.771.657 1.385 1.427 1.421 9.028.426 11.499 12.718 11.523 12.843.137.711.759 1.217 1.472 1.217.042 0 .084-.002.126-.005.764-.065 1.356-.693 1.374-1.46.194-8.509 12.191-12.777 12.312-12.819.675-.234 1.092-.914.994-1.622-.098-.709-.682-1.25-1.396-1.292zm-13.565 10.345c-1.357-3.131-3.709-6.907-7.587-8.876 2.931-1.405 6.409-3.913 8.202-8.273 1.551 3.071 4.2 6.88 8.334 8.723-3.008 1.639-6.923 4.405-8.949 8.426z" fill="#3a312a"/></g></g><g><g><path d="m25.705 43.96c-.689 8.179-9.212 9.471-9.212 9.471 7.318.344 9.142 9.944 9.142 9.944.156-6.845 9.422-10.045 9.422-10.045-6.941-.416-9.352-9.37-9.352-9.37z" fill="#d7e057"/></g></g><g><g><path d="m35.147 51.832c-5.766-.345-7.972-8.186-7.994-8.265-.19-.702-.855-1.163-1.582-1.102-.726.065-1.299.643-1.36 1.368-.579 6.871-7.646 8.066-7.942 8.113-.763.116-1.313.791-1.274 1.561.04.771.657 1.385 1.427 1.421 6.036.284 7.724 8.645 7.739 8.727.135.712.759 1.22 1.472 1.22.042 0 .083-.002.125-.005.765-.063 1.358-.693 1.376-1.461.13-5.709 8.332-8.634 8.413-8.662.677-.234 1.094-.913.996-1.622-.097-.709-.681-1.251-1.396-1.293zm-9.585 6.795c-.924-1.886-2.34-3.947-4.447-5.279 1.856-1.041 3.697-2.63 4.871-4.917 1.057 1.874 2.654 3.955 4.941 5.224-1.849 1.1-3.989 2.74-5.365 4.972z" fill="#3a312a"/></g></g><g><g><path clip-rule="evenodd" d="m16.507 100.958v138.642l55.759-26.725v-138.642z" fill="#8ac6dd" fill-rule="evenodd"/></g></g><g><g><path d="m73.066 72.964c-.437-.275-.983-.307-1.448-.083l-55.76 26.725c-.521.249-.852.775-.852 1.353v62.983c0 .828.671 1.5 1.5 1.5s1.5-.672 1.5-1.5v-62.039l52.76-25.287v135.315l-52.76 25.287v-57.982c0-.828-.671-1.5-1.5-1.5s-1.5.672-1.5 1.5v60.364c0 .516.265.995.701 1.27.243.153.521.23.799.23.221 0 .443-.049.649-.147l55.76-26.725c.521-.249.852-.775.852-1.352v-138.643c0-.515-.265-.995-.701-1.269z" fill="#3a312a"/></g></g><g><g><path clip-rule="evenodd" d="m72.266 74.233v138.642l55.76 26.725v-138.642z" fill="#8ac6dd" fill-rule="evenodd"/></g></g><g><g><path d="m128.674 99.605-55.759-26.724c-.464-.224-1.012-.192-1.448.083-.436.274-.701.754-.701 1.27v138.642c0 .577.331 1.104.852 1.352l55.759 26.725c.206.099.427.147.648.147.278 0 .556-.077.799-.23.436-.274.701-.754.701-1.27v-138.642c.001-.577-.33-1.104-.851-1.353zm-2.148 137.613-52.759-25.287v-135.316l52.759 25.287z" fill="#3a312a"/></g></g><g><g><path clip-rule="evenodd" d="m127.988 100.958v138.642l55.759-26.725v-138.642z" fill="#8ac6dd" fill-rule="evenodd"/></g></g><g><g><path d="m184.546 72.964c-.437-.275-.984-.307-1.448-.083l-55.759 26.725c-.521.249-.852.775-.852 1.353v138.641c0 .516.265.995.701 1.27.243.153.521.23.799.23.221 0 .443-.049.648-.147l55.759-26.725c.521-.249.852-.775.852-1.352v-138.643c.001-.515-.264-.995-.7-1.269zm-2.299 138.967-52.759 25.287v-135.316l52.759-25.287z" fill="#3a312a"/></g></g><g><g><path clip-rule="evenodd" d="m183.747 74.233v138.642l55.76 26.725v-138.642z" fill="#8ac6dd" fill-rule="evenodd"/></g></g><g><g><path d="m240.155 99.605-55.76-26.725c-.464-.224-1.012-.192-1.448.083-.436.274-.701.754-.701 1.27v138.642c0 .577.331 1.104.852 1.352l55.76 26.725c.206.099.427.147.648.147.278 0 .556-.077.799-.23.436-.274.701-.754.701-1.27v-138.641c.001-.577-.33-1.104-.851-1.353zm-2.148 137.613-52.76-25.287v-135.316l52.76 25.287z" fill="#3a312a"/></g></g><g><g><path d="m199.561 16.4c-22.061 0-39.946 17.884-39.946 39.946 0 8.379 5.764 20.902 12.911 33.215l7.628 12.363c7.013 10.784 13.933 20.115 17.297 24.544 1.061 1.396 3.158 1.396 4.219 0 8.244-10.853 37.836-51.133 37.836-70.121.001-22.062-17.883-39.947-39.945-39.947z" fill="#f16c7a"/></g></g><g><g><path d="m199.561 14.9c-22.854 0-41.446 18.592-41.446 41.445 0 7.549 4.412 18.977 13.113 33.968.416.717 1.333.961 2.05.544.717-.415.96-1.333.544-2.05-8.433-14.527-12.708-25.449-12.708-32.462 0-21.199 17.247-38.445 38.446-38.445s38.445 17.246 38.445 38.445c0 9.576-9.859 32.788-37.53 69.214-.44.578-1.392.577-1.831 0-3.455-4.548-10.287-13.771-17.234-24.454-.451-.695-1.381-.892-2.075-.44s-.891 1.381-.439 2.075c6.998 10.763 13.88 20.054 17.36 24.634.792 1.042 1.996 1.641 3.304 1.641s2.512-.599 3.304-1.641c8.948-11.778 38.142-51.71 38.142-71.028.001-22.854-18.591-41.446-41.445-41.446z" fill="#3a312a"/></g></g><g><g><circle cx="199.561" cy="56.346" fill="#fce8cb" r="17.673"/></g></g><g><g><path d="m199.561 37.173c-10.572 0-19.173 8.6-19.173 19.173s8.601 19.173 19.173 19.173 19.173-8.601 19.173-19.173-8.601-19.173-19.173-19.173zm0 35.346c-8.918 0-16.173-7.255-16.173-16.173s7.255-16.173 16.173-16.173 16.173 7.255 16.173 16.173-7.254 16.173-16.173 16.173z" fill="#3a312a"/></g></g><g><g><path d="m104.853 143.501c-.779-.284-1.64.118-1.922.898-.731 2.014-1.206 4.102-1.409 6.207-.08.825.524 1.558 1.349 1.638.049.005.098.007.146.007.763 0 1.416-.58 1.491-1.356.179-1.854.597-3.695 1.242-5.473.283-.777-.119-1.638-.897-1.921z" fill="#3a312a"/></g></g><g><g><path d="m206.324 167.842c-.446-.699-1.374-.903-2.071-.456-3.265 2.087-7.059 3.464-11.276 4.093-.819.122-1.385.886-1.262 1.705.111.744.751 1.278 1.481 1.278.074 0 .148-.005.223-.017 4.638-.691 8.827-2.217 12.449-4.532.698-.446.902-1.373.456-2.071z" fill="#3a312a"/></g></g><g><g><path d="m180.85 171.137c-1.408-.288-2.79-.664-4.108-1.118-2.534-.873-4.845-2.003-7.067-3.454-.692-.452-1.623-.257-2.076.436s-.258 1.623.436 2.076c2.431 1.588 4.96 2.824 7.73 3.778 1.44.496 2.949.907 4.484 1.222.102.02.203.03.302.03.698 0 1.323-.489 1.468-1.199.166-.812-.358-1.605-1.169-1.771z" fill="#3a312a"/></g></g><g><g><path d="m218.173 147.226-3 .022.001.205c0 2.179-.292 4.294-.867 6.286-.511 1.768-1.189 3.448-2.015 4.99-.391.73-.116 1.64.614 2.03.226.121.468.178.707.178.536 0 1.054-.287 1.324-.792.925-1.727 1.683-3.602 2.252-5.574.654-2.263.985-4.657.985-7.118z" fill="#3a312a"/></g></g><g><g><path d="m160.674 158.301c-2.443-2.932-4.705-6.186-7.35-10.169-.458-.69-1.387-.877-2.079-.421-.69.458-.878 1.39-.42 2.079 2.699 4.066 5.014 7.396 7.544 10.431.297.356.723.54 1.153.54.338 0 .679-.114.959-.348.637-.53.723-1.477.193-2.112z" fill="#3a312a"/></g></g><g><g><path d="m145.831 137.648c-3.344-3.953-6.669-6.725-10.165-8.471-.741-.37-1.642-.071-2.012.672-.37.74-.07 1.642.671 2.012 3.124 1.562 6.139 4.088 9.216 7.725.296.351.72.531 1.145.531.342 0 .687-.116.968-.355.634-.535.713-1.481.177-2.114z" fill="#3a312a"/></g></g><g><g><path d="m124.108 128.52c-.155-.813-.94-1.34-1.754-1.192-4.262.814-8.382 2.909-11.913 6.06-.618.551-.672 1.499-.121 2.117.296.333.707.502 1.12.502.355 0 .712-.126.998-.381 3.082-2.749 6.803-4.649 10.479-5.351.813-.156 1.347-.942 1.191-1.755z" fill="#3a312a"/></g></g><g><g><path d="m214.589 134.263c-1.208-1.936-2.667-3.567-4.339-4.848-.657-.502-1.599-.379-2.102.279-.504.658-.379 1.6.279 2.104 1.384 1.06 2.601 2.423 3.617 4.053.284.456.774.706 1.274.706.271 0 .545-.073.792-.227.703-.438.917-1.364.479-2.067z" fill="#3a312a"/></g></g><g><g><path d="m224.76 95.551c-.58.95-1.17 1.9-1.75 2.84v131.64l15 7.19v-135.32z" fill="#6ca8bf"/></g></g><g><g><path d="m199.56 17.901c-2.57 0-5.07.25-7.5.73 17.62 3.5 30.95 19.08 30.95 37.71 0 8.78-8.28 28.99-30.94 60.34 2.07 2.86 4.26 5.83 6.58 8.88.43.58 1.39.58 1.83 0 27.67-36.43 37.53-59.64 37.53-69.22 0-21.19-17.25-38.44-38.45-38.44z" fill="#d34e5c"/></g></g><g><g><path d="m90.357 150.071-.077-.2c-.861-2.343-3.461-3.538-5.799-2.676l-6.748 2.492 10.327 6.024c2.092-.99 3.113-3.43 2.297-5.64z" fill="#fce8cb"/></g></g><g><g><path d="m91.758 149.535-.07-.182c-.555-1.51-1.665-2.712-3.125-3.385-1.46-.674-3.093-.737-4.601-.182l-6.747 2.492c-.545.201-.924.698-.975 1.276s.237 1.134.738 1.427l10.327 6.024c.233.136.494.204.756.204.219 0 .438-.048.641-.144 2.833-1.338 4.15-4.569 3.056-7.53zm-3.72 4.426-6.803-3.969 3.765-1.39c.756-.277 1.576-.246 2.307.092.732.337 1.288.939 1.573 1.714l.07.184c.449 1.215.049 2.573-.912 3.369z" fill="#3a312a"/></g></g><g><g><path d="m31.654 176.215c-.523-.308-1.159-.359-1.733-.149l-3.589 1.323c-1.446.533-1.8 2.425-.641 3.44l15.357 13.495c.405-.282.841-.523 1.313-.723l11.019-4.702z" fill="#87796f"/></g></g><g><g><path d="m54.135 187.605-21.719-12.682c-.909-.536-2.005-.635-3.015-.265l-3.589 1.323c-1.182.436-2.024 1.436-2.253 2.676-.23 1.238.198 2.472 1.141 3.299l15.356 13.495c.282.247.635.373.991.373.298 0 .598-.089.857-.27.324-.225.664-.412 1.044-.573l11.019-4.702c.521-.223.873-.721.908-1.286.037-.564-.25-1.102-.74-1.388zm-12.361 4.617c-.188.08-.373.166-.554.258l-14.54-12.777c-.197-.172-.191-.386-.17-.497.021-.113.093-.316.342-.408l3.584-1.321c.066-.024.132-.036.198-.036.093 0 .184.023.265.071l19.148 11.181z" fill="#3a312a"/></g></g><g><g><path d="m62.182 140.606c-.8-.472-1.764-.554-2.635-.236l-7.937 2.933c-2.205.81-2.738 3.687-.974 5.235l31.82 27.965 23.817-10.157z" fill="#87796f"/></g></g><g><g><path d="m107.029 165.049-44.084-25.735c-1.185-.699-2.61-.826-3.918-.351l-7.935 2.932c-1.536.566-2.632 1.863-2.932 3.473-.3 1.611.255 3.218 1.485 4.298l31.82 27.965c.279.245.632.373.991.373.198 0 .399-.039.588-.12l23.817-10.158c.521-.223.873-.72.909-1.286.036-.567-.251-1.105-.741-1.391zm-24.292 9.704-31.111-27.342c-.616-.541-.566-1.226-.516-1.494.05-.269.249-.924 1.021-1.207l7.931-2.931c.182-.066.371-.1.558-.1.281 0 .559.074.808.221l41.513 24.235z" fill="#3a312a"/></g></g><g><g><path d="m138.936 168.909c-.099-.954-.318-1.907-.665-2.845-.372-1.013-.869-1.941-1.47-2.776-3.113-4.35-8.948-6.153-14.117-3.947l-53.469 22.808-6.707 2.861-20.147 8.594c-3.674 1.569-5.472 5.74-4.092 9.484 1.385 3.754 5.477 5.755 9.291 4.549l83.253-26.347c5.015-1.584 8.188-6.212 8.188-11.168-.001-.403-.021-.811-.065-1.213z" fill="#d6df58"/></g></g><g><g><path d="m140.428 168.754c-.114-1.091-.366-2.172-.75-3.208-.413-1.124-.972-2.179-1.658-3.131-3.574-4.993-10.271-6.867-15.925-4.454l-60.176 25.668-20.148 8.595c-4.412 1.884-6.569 6.884-4.91 11.384 1.337 3.622 4.756 5.882 8.425 5.882.902 0 1.82-.137 2.725-.424l83.253-26.347c5.524-1.745 9.236-6.808 9.236-12.598 0-.472-.025-.935-.072-1.367zm-10.069 11.104-83.253 26.348c-3.056.967-6.321-.63-7.431-3.637-1.105-2.999.332-6.331 3.272-7.586l20.148-8.595 60.176-25.668c4.372-1.864 9.548-.417 12.312 3.444.529.734.96 1.548 1.28 2.419.297.804.493 1.639.581 2.49.038.348.055.699.055 1.047.001 4.476-2.868 8.389-7.14 9.738z" fill="#3a312a"/></g></g><g><g><path d="m138.27 166.064c-.372-1.013-.869-1.941-1.47-2.776l-10.443 3.198c-.79.238-1.41.785-1.768 1.46-.362.675-.467 1.495-.223 2.284.482 1.579 2.165 2.473 3.744 1.991l10.825-3.312c-.099-.953-.317-1.907-.665-2.845z" fill="#8ac5dc"/></g></g><g><g><path d="m139.678 165.547c-.413-1.124-.972-2.18-1.66-3.136-.375-.521-1.042-.742-1.657-.558l-10.437 3.197c-1.134.342-2.103 1.142-2.656 2.186-.571 1.064-.69 2.284-.336 3.432.591 1.936 2.377 3.184 4.306 3.184.434 0 .875-.063 1.312-.196l10.825-3.312c.686-.21 1.127-.876 1.053-1.59-.114-1.092-.367-2.172-.75-3.207zm-12.005 5.24c-.792.236-1.631-.205-1.873-.998-.117-.379-.077-.782.116-1.142.184-.349.503-.613.881-.727l9.357-2.866c.276.485.513.997.709 1.531.155.417.282.842.38 1.272z" fill="#3a312a"/></g></g><g><g><path d="m105.212 209.6c-.723-1.949-2.61-3.123-4.579-3.015l-4.856 11.423 6.696-2.471c1.867-.687 3.025-2.456 3.025-4.338.001-.533-.092-1.071-.286-1.599z" fill="#fce8cb"/></g></g><g><g><path d="m106.618 209.078c-.94-2.534-3.39-4.13-6.066-3.991-.571.031-1.075.385-1.299.911l-4.855 11.424c-.234.551-.119 1.188.294 1.622.289.302.683.465 1.086.465.174 0 .35-.03.519-.093l6.695-2.471c2.396-.882 4.007-3.191 4.007-5.746-.001-.722-.128-1.435-.381-2.121zm-4.664 5.052-3.438 1.269 3.077-7.239c.999.232 1.837.953 2.211 1.959.129.351.194.714.194 1.081 0 1.302-.82 2.48-2.044 2.93z" fill="#3a312a"/></g></g><g><g><path d="m85.327 190.581-6.367 27.538-1.714 7.411-2.446 10.58c-.328 2.289 1.907 4.097 4.072 3.297l8.044-2.969c.854-.318 1.524-.998 1.822-1.857l22.127-52.084z" fill="#87796f"/></g></g><g><g><path d="m111.975 181.488c-.394-.435-1.005-.602-1.562-.421l-25.538 8.083c-.506.16-.889.575-1.009 1.092l-10.527 45.53c-.01.041-.018.083-.023.125-.229 1.604.386 3.17 1.646 4.188.827.668 1.826 1.015 2.844 1.015.531 0 1.067-.095 1.586-.286l8.047-2.971c1.263-.47 2.244-1.458 2.698-2.718l22.108-52.042c.229-.538.124-1.161-.27-1.595zm-24.617 52.506c-.014.031-.026.064-.037.095-.151.437-.489.779-.925.941l-8.044 2.97c-.741.274-1.3-.081-1.506-.248-.202-.163-.653-.618-.568-1.375l10.317-44.625 21.614-6.841z" fill="#3a312a"/></g></g></g></svg>